<svg xmlns="http://www.w3.org/2000/svg" width="309" height="72" viewBox="0 0 309 72" fill="none" role="img" aria-label="Sanur Ride Co.">
  <rect width="309" height="72" rx="14" fill="#0F172A"></rect>
  <g transform="translate(16,12)"><path d="M33 11 C 19 11, 19 23, 24 24 C 29 25, 29 37, 15 37" stroke="#38BDF8" stroke-width="5" stroke-linecap="round" fill="none"></path></g>
  <path d="M88.17 47.57L88.17 47.57Q85.26 47.57 83.27 46.64Q81.27 45.71 80.22 44.08Q79.17 42.44 79.17 40.37L79.17 40.37L83.34 40.37Q83.34 41.24 83.82 42.06Q84.30 42.89 85.36 43.40Q86.43 43.91 88.17 43.91L88.17 43.91Q89.73 43.91 90.78 43.46Q91.83 43.01 92.34 42.27Q92.85 41.54 92.85 40.61L92.85 40.61Q92.85 39.44 91.86 38.73Q90.87 38.03 88.80 37.85L88.80 37.85L86.88 37.70Q83.73 37.43 81.86 35.73Q79.98 34.04 79.98 31.25L79.98 31.25Q79.98 29.15 80.97 27.64Q81.96 26.12 83.75 25.30Q85.53 24.47 87.93 24.47L87.93 24.47Q90.42 24.47 92.22 25.34Q94.02 26.21 95.01 27.79Q96 29.36 96 31.49L96 31.49L91.83 31.49Q91.83 30.59 91.39 29.82Q90.96 29.06 90.11 28.60Q89.25 28.13 87.93 28.13L87.93 28.13Q86.67 28.13 85.83 28.55Q84.99 28.97 84.57 29.69Q84.15 30.41 84.15 31.25L84.15 31.25Q84.15 32.27 84.90 33.03Q85.65 33.80 87.27 33.92L87.27 33.92L89.19 34.10Q91.53 34.28 93.30 35.09Q95.07 35.90 96.05 37.28Q97.02 38.66 97.02 40.61L97.02 40.61Q97.02 42.68 95.94 44.26Q94.86 45.83 92.86 46.70Q90.87 47.57 88.17 47.57Z M113.16 47L109.86 47L109.86 43.88Q109.65 44.51 109.38 45.02L109.38 45.02Q108.69 46.19 107.51 46.80Q106.32 47.42 104.61 47.42L104.61 47.42Q102.84 47.42 101.51 46.79Q100.17 46.16 99.44 44.99Q98.70 43.82 98.70 42.17L98.70 42.17Q98.70 40.37 99.59 39.23Q100.47 38.09 102.08 37.52Q103.68 36.95 105.84 36.95L105.84 36.95L109.17 36.95L109.17 36.80Q109.17 35.39 108.48 34.70Q107.79 34.01 106.35 34.01L106.35 34.01Q105.60 34.01 104.55 34.04Q103.50 34.07 102.44 34.12Q101.37 34.16 100.53 34.22L100.53 34.22L100.53 30.68Q101.22 30.62 102.09 30.56Q102.96 30.50 103.88 30.48Q104.79 30.47 105.60 30.47L105.60 30.47Q108.12 30.47 109.78 31.13Q111.45 31.79 112.31 33.20Q113.16 34.61 113.16 36.89L113.16 36.89L113.16 47ZM109.17 40.97L109.17 39.44L105.78 39.44Q104.34 39.44 103.58 40.15Q102.81 40.85 102.81 41.96Q102.81 43.07 103.58 43.76Q104.34 44.45 105.78 44.45L105.78 44.45Q106.65 44.45 107.39 44.13Q108.12 43.82 108.62 43.05Q109.11 42.29 109.17 40.97L109.17 40.97Z M121.20 47L117.03 47L117.03 30.71L120.33 30.71L120.33 34.73Q120.48 34.10 120.69 33.53L120.69 33.53Q121.35 31.88 122.66 31.04Q123.96 30.20 125.91 30.20L125.91 30.20L126.09 30.20Q129 30.20 130.50 32.08Q132 33.95 132 37.67L132 37.67L132 47L127.83 47L127.83 37.31Q127.83 35.81 126.97 34.88Q126.12 33.95 124.62 33.95L124.62 33.95Q123.09 33.95 122.14 34.89Q121.20 35.84 121.20 37.43L121.20 37.43L121.20 47Z M141.60 47.51L141.42 47.51Q138.60 47.51 137.06 45.65Q135.51 43.79 135.51 40.13L135.51 40.13L135.51 30.68L139.68 30.68L139.68 40.49Q139.68 41.99 140.52 42.88Q141.36 43.76 142.80 43.76Q144.24 43.76 145.16 42.83Q146.07 41.90 146.07 40.31L146.07 40.31L146.07 30.68L150.24 30.68L150.24 47L146.94 47L146.94 43.22Q146.82 43.73 146.64 44.18L146.64 44.18Q146.01 45.83 144.75 46.67Q143.49 47.51 141.60 47.51L141.60 47.51Z M158.61 47L154.44 47L154.44 30.71L157.74 30.71L157.74 35.99Q158.01 33.65 159.15 32.30L159.15 32.30Q160.65 30.50 163.56 30.50L163.56 30.50L164.16 30.50L164.16 34.13L163.02 34.13Q160.92 34.13 159.76 35.26Q158.61 36.38 158.61 38.51L158.61 38.51L158.61 47Z  M176.82 47L172.56 47L172.56 24.95L180.69 24.95Q183.33 24.95 185.26 25.73Q187.20 26.51 188.25 28.10Q189.30 29.69 189.30 32.09L189.30 32.09L189.30 32.57Q189.30 35 188.23 36.56Q187.17 38.12 185.25 38.90L185.25 38.90Q185.16 38.93 185.07 38.96L185.07 38.96L190.92 47L185.94 47L180.78 39.68Q180.75 39.68 180.69 39.68L180.69 39.68L176.82 39.68L176.82 47ZM181.14 28.58L176.82 28.58L176.82 36.23L181.14 36.23Q182.31 36.23 183.16 35.75Q184.02 35.27 184.50 34.40Q184.98 33.53 184.98 32.42L184.98 32.42Q184.98 31.28 184.50 30.41Q184.02 29.54 183.16 29.06Q182.31 28.58 181.14 28.58L181.14 28.58Z M198.18 47L194.01 47L194.01 33.83L191.73 33.83L191.73 30.71L198.18 30.71L198.18 47ZM195.54 28.76Q194.31 28.76 193.72 28.12Q193.14 27.47 193.14 26.48Q193.14 25.49 193.72 24.86Q194.31 24.23 195.54 24.23Q196.77 24.23 197.34 24.86Q197.91 25.49 197.91 26.48Q197.91 27.47 197.34 28.12Q196.77 28.76 195.54 28.76Z M209.13 47.54L209.13 47.54Q207.42 47.54 205.98 46.91Q204.54 46.28 203.49 45.14Q202.44 44 201.87 42.48Q201.30 40.97 201.30 39.20L201.30 39.20L201.30 38.57Q201.30 36.83 201.85 35.30Q202.41 33.77 203.41 32.63Q204.42 31.49 205.84 30.84Q207.27 30.20 209.01 30.20L209.01 30.20Q210.93 30.20 212.40 31.01L212.40 31.01Q213.63 31.73 214.44 33.02L214.44 33.02L214.44 25.10L218.61 25.10L218.61 47L215.31 47L215.31 43.61Q215.16 43.94 215.01 44.21L215.01 44.21Q214.08 45.89 212.56 46.72Q211.05 47.54 209.13 47.54ZM210.06 44.03L210.06 44.03Q211.29 44.03 212.31 43.48Q213.33 42.92 213.94 41.86Q214.56 40.79 214.56 39.35L214.56 39.35L214.56 38.15Q214.56 36.71 213.93 35.73Q213.30 34.76 212.28 34.23Q211.26 33.71 210.06 33.71L210.06 33.71Q208.71 33.71 207.67 34.36Q206.64 35 206.05 36.17Q205.47 37.34 205.47 38.90Q205.47 40.46 206.07 41.62Q206.67 42.77 207.70 43.40Q208.74 44.03 210.06 44.03Z M230.04 47.57L230.04 47.57Q227.94 47.57 226.37 46.85Q224.79 46.13 223.75 44.91Q222.72 43.70 222.19 42.20Q221.67 40.70 221.67 39.14L221.67 39.14L221.67 38.57Q221.67 36.95 222.19 35.44Q222.72 33.92 223.75 32.73Q224.79 31.55 226.32 30.84Q227.85 30.14 229.86 30.14L229.86 30.14Q232.50 30.14 234.28 31.30Q236.07 32.45 236.97 34.33Q237.87 36.20 237.87 38.36L237.87 38.36L237.87 39.86L225.63 39.86Q225.72 40.79 226.05 41.57L226.05 41.57Q226.53 42.77 227.52 43.45Q228.51 44.12 230.04 44.12Q231.57 44.12 232.53 43.51Q233.49 42.89 233.76 41.99L233.76 41.99L237.60 41.99Q237.24 43.67 236.22 44.93Q235.20 46.19 233.63 46.88Q232.05 47.57 230.04 47.57ZM225.69 37.31L225.69 37.31L233.88 37.31Q233.79 36.53 233.52 35.90L233.52 35.90Q233.07 34.79 232.16 34.19Q231.24 33.59 229.86 33.59Q228.48 33.59 227.52 34.22Q226.56 34.85 226.08 36.02L226.08 36.02Q225.81 36.62 225.69 37.31Z" fill="#F8FAFC"></path>
  <path d="M257.31 47.54L257.31 47.54Q254.31 47.54 252.19 46.49Q250.08 45.44 248.79 43.76Q247.50 42.08 246.90 40.12Q246.30 38.15 246.30 36.32L246.30 36.32L246.30 35.66Q246.30 33.68 246.91 31.70Q247.53 29.72 248.82 28.10Q250.11 26.48 252.18 25.49Q254.25 24.50 257.13 24.50L257.13 24.50Q260.07 24.50 262.17 25.52Q264.27 26.54 265.50 28.37Q266.73 30.20 267 32.69L267 32.69L264 32.69Q263.76 30.83 262.80 29.62Q261.84 28.40 260.38 27.80Q258.93 27.20 257.13 27.20L257.13 27.20Q255.18 27.20 253.71 27.88Q252.24 28.55 251.27 29.77Q250.29 30.98 249.80 32.57Q249.30 34.16 249.30 36.02L249.30 36.02Q249.30 37.79 249.80 39.38Q250.29 40.97 251.30 42.20Q252.30 43.43 253.80 44.13Q255.30 44.84 257.31 44.84L257.31 44.84Q260.13 44.84 262.05 43.43Q263.97 42.02 264.39 39.35L264.39 39.35L267.39 39.35Q267.09 41.60 265.88 43.46Q264.66 45.32 262.51 46.43Q260.37 47.54 257.31 47.54Z M278.01 47.54L278.01 47.54Q275.91 47.54 274.32 46.82Q272.73 46.10 271.63 44.91Q270.54 43.73 269.99 42.26Q269.43 40.79 269.43 39.26L269.43 39.26L269.43 38.72Q269.43 37.19 270 35.70Q270.57 34.22 271.68 33.03Q272.79 31.85 274.38 31.15Q275.97 30.44 278.01 30.44L278.01 30.44Q280.05 30.44 281.64 31.15Q283.23 31.85 284.34 33.03Q285.45 34.22 286.02 35.70Q286.59 37.19 286.59 38.72L286.59 38.72L286.59 39.26Q286.59 40.79 286.04 42.26Q285.48 43.73 284.38 44.91Q283.29 46.10 281.70 46.82Q280.11 47.54 278.01 47.54ZM278.01 44.96L278.01 44.96Q279.81 44.96 281.08 44.16Q282.36 43.37 283.04 42.02Q283.71 40.67 283.71 38.99L283.71 38.99Q283.71 37.28 283.02 35.93Q282.33 34.58 281.06 33.80Q279.78 33.02 278.01 33.02L278.01 33.02Q276.27 33.02 274.98 33.80Q273.69 34.58 273 35.93Q272.31 37.28 272.31 38.99L272.31 38.99Q272.31 40.67 272.99 42.02Q273.66 43.37 274.94 44.16Q276.21 44.96 278.01 44.96Z M293.22 47L289.74 47L289.74 43.34L293.22 43.34L293.22 47Z" fill="#94A3B8"></path>
</svg>